<svg width="60" height="60" viewBox="0 0 60 60" fill="none" xmlns="http://www.w3.org/2000/svg">
<g id="Social Icons" clip-path="url(#clip0_38_27)">
<path id="Vector" fill-rule="evenodd" clip-rule="evenodd" d="M30.0007 1.25C22.8787 1.2537 15.9903 3.77615 10.5672 8.36631C5.14402 12.9565 1.53976 19.315 0.398861 26.305C-0.742036 33.295 0.654817 40.4605 4.33968 46.5204C8.02454 52.5803 13.7571 57.1394 20.5123 59.3824C22.0026 59.659 22.564 58.7354 22.564 57.95C22.564 57.1646 22.5342 54.8875 22.5242 52.398C14.1785 54.2009 12.415 48.8762 12.415 48.8762C11.0538 45.4186 9.08659 44.5097 9.08659 44.5097C6.36429 42.6624 9.29029 42.697 9.29029 42.697C12.3057 42.9094 13.8904 45.7742 13.8904 45.7742C16.563 50.3334 20.9097 49.0145 22.6186 48.244C22.8869 46.3126 23.6668 44.9987 24.5262 44.2529C17.8596 43.5021 10.8551 40.9435 10.8551 29.5136C10.8138 26.5493 11.9201 23.6826 13.945 21.5067C13.637 20.7559 12.6087 17.7231 14.2381 13.6036C14.2381 13.6036 16.7568 12.8034 22.4895 16.6611C27.4067 15.3241 32.5947 15.3241 37.5118 16.6611C43.2396 12.8034 45.7533 13.6036 45.7533 13.6036C47.3876 17.7132 46.3593 20.746 46.0513 21.5067C48.0827 23.683 49.1913 26.5546 49.1462 29.5234C49.1462 40.978 42.1268 43.5021 35.4502 44.2381C36.5233 45.1667 37.482 46.9795 37.482 49.7653C37.482 53.7564 37.4473 56.967 37.4473 57.95C37.4473 58.7452 37.9887 59.6739 39.5088 59.3824C46.2649 57.1391 51.998 52.5793 55.6828 46.5183C59.3676 40.4574 60.7637 33.2907 59.6215 26.3001C58.4793 19.3095 54.8733 12.9509 49.4483 8.36151C44.0234 3.77214 37.1334 1.25135 30.0106 1.25H30.0007Z" fill="white"/>
<path id="Vector_2" d="M20.0696 49.9382C20.0696 50.1802 19.7914 50.3877 19.4337 50.3926C19.0761 50.3976 18.783 50.2 18.783 49.9579C18.783 49.7159 19.0611 49.5085 19.4188 49.5035C19.7765 49.4986 20.0696 49.6912 20.0696 49.9382Z" fill="white"/>
<path id="Vector_3" d="M22.3547 49.5578C22.3994 49.7998 22.1511 50.0517 21.7934 50.111C21.4357 50.1703 21.1227 50.027 21.078 49.7899C21.0333 49.5529 21.2916 49.296 21.6394 49.2318C21.9871 49.1676 22.31 49.3158 22.3547 49.5578Z" fill="white"/>
<path id="Vector_4" d="M17.6154 49.7702C17.5409 50.0024 17.2031 50.1061 16.8653 50.0073C16.5275 49.9085 16.304 49.6319 16.3685 49.3948C16.4331 49.1577 16.7759 49.0491 17.1187 49.1577C17.4614 49.2664 17.68 49.5282 17.6154 49.7702Z" fill="white"/>
<path id="Vector_5" d="M15.3651 48.8021C15.2012 48.9849 14.8684 48.9355 14.5951 48.6885C14.3219 48.4415 14.2573 48.1056 14.4213 47.9278C14.5852 47.75 14.918 47.7994 15.2012 48.0414C15.4844 48.2835 15.539 48.6243 15.3651 48.8021Z" fill="white"/>
<path id="Vector_6" d="M13.7606 47.1425C13.5768 47.2709 13.2638 47.1425 13.09 46.8856C13.0419 46.8395 13.0036 46.7843 12.9775 46.7232C12.9514 46.6621 12.9379 46.5964 12.9379 46.53C12.9379 46.4636 12.9514 46.3979 12.9775 46.3367C13.0036 46.2756 13.0419 46.2204 13.09 46.1743C13.2738 46.0508 13.5867 46.1743 13.7606 46.4262C13.9345 46.6781 13.9394 47.014 13.7606 47.1425Z" fill="white"/>
<path id="Vector_7" d="M12.5782 45.4285C12.4753 45.48 12.3576 45.4944 12.2453 45.4692C12.1329 45.4439 12.0329 45.3807 11.9622 45.2902C11.7685 45.0827 11.7287 44.7962 11.8778 44.6678C12.0268 44.5394 12.2951 44.5986 12.4888 44.8061C12.6826 45.0136 12.7273 45.3 12.5782 45.4285Z" fill="white"/>
<path id="Vector_8" d="M11.3611 44.0801C11.2965 44.2283 11.0581 44.2727 10.8643 44.169C10.6706 44.0653 10.5265 43.8726 10.5961 43.7195C10.6656 43.5664 10.8991 43.5269 11.0928 43.6306C11.2866 43.7343 11.4356 43.9319 11.3611 44.0801Z" fill="white"/>
</g>
<defs>
<clipPath id="clip0_38_27">
<rect width="60" height="60" fill="white"/>
</clipPath>
</defs>
</svg>
